Coordinates
version=1
nRows=10
nColumns=46
inDegrees=yes

Units are S.I. units (second, meters, Newtons, ...)
Angles are in degrees.

endheader
time	pelvis_tilt	pelvis_list	pelvis_rotation	pelvis_tx	pelvis_ty	pelvis_tz	bb_angle	bb_tx	bb_ty	bb_tz	hip_flexion_r	hip_adduction_r	hip_rotation_r	knee_angle_r	knee_angle_r_beta	ankle_angle_r	subtalar_angle_r	mtp_angle_r	crank_angle_r	hip_flexion_l	hip_adduction_l	hip_rotation_l	knee_angle_l	knee_angle_l_beta	ankle_angle_l	subtalar_angle_l	mtp_angle_l	crank_angle_l	lumbar_extension	lumbar_bending	lumbar_rotation	arm_flex_r	arm_add_r	arm_rot_r	elbow_flex_r	pro_sup_r	wrist_flex_r	wrist_dev_r	arm_flex_l	arm_add_l	arm_rot_l	elbow_flex_l	pro_sup_l	wrist_flex_l	wrist_dev_l
      0.00500000	    -11.52321324	      2.07440801	      4.84877972	      0.15967857	      1.04845971	     -0.24108060	      0.00000000	      0.50000000	      0.00000000	      0.25000000	     40.29148704	     -8.58622084	      0.53907484	     65.91381319	      1.15041306	     10.50935962	     -2.32867322	      0.00000000	      0.00000000	     80.26116734	     -1.07354515	      1.46881127	     88.05264704	      1.53680861	      5.70742938	     -5.64374726	      0.00000000	      0.00000000	    -54.62558494	     -2.35173649	     -4.63812736	     89.24412988	    -10.97761076	     42.30629198	     29.73909023	     32.22741634	      0.00000000	      0.00000000	     88.58750008	     -8.18613346	     36.27801938	     37.38310995	     32.97619509	      0.00000000	      0.00000000
      0.01000000	    -11.50694482	      2.09089593	      4.85927790	      0.15968679	      1.04852199	     -0.24112081	      0.00000000	      0.50000000	      0.00000000	      0.25000000	     40.26816175	     -8.61270047	      0.53966921	     65.91017445	      1.15034955	     10.54659293	     -2.26514011	      0.00000000	      0.00000000	     80.22592703	     -1.04488799	      1.46263420	     88.02893690	      1.53639479	      5.72784475	     -5.62733532	      0.00000000	      0.00000000	    -54.64859496	     -2.33909769	     -4.71216604	     89.23937554	    -10.65833685	     41.56703965	     29.38167314	     33.00033879	      0.00000000	      0.00000000	     88.56878532	     -8.15992424	     35.79087857	     37.24270435	     33.82299720	      0.00000000	      0.00000000
      0.01500000	    -11.50773386	      2.06717786	      4.82289829	      0.15971232	      1.04847263	     -0.24102398	      0.00000000	      0.50000000	      0.00000000	      0.25000000	     40.28479754	     -8.55542644	      0.56338277	     65.92298574	      1.15057315	     10.48212011	     -2.33996960	      0.00000000	      0.00000000	     80.23557265	     -1.10262063	      1.47335340	     88.05300976	      1.53681494	      5.75048334	     -5.62961640	      0.00000000	      0.00000000	    -54.64125525	     -2.35511689	     -4.68061878	     89.24884453	    -10.85196116	     42.13551826	     29.51018796	     33.15476954	      0.00000000	      0.00000000	     88.58878025	     -8.43994567	     36.61269938	     37.34621159	     34.29645487	      0.00000000	      0.00000000
      0.02000000	    -11.31116546	      2.04682978	      4.93142683	      0.15992454	      1.04900478	     -0.24087892	      0.00000000	      0.50000000	      0.00000000	      0.25000000	     39.96686529	     -8.57096843	      0.44833779	     65.80730067	      1.14855407	     10.57079724	     -2.31967008	      0.00000000	      0.00000000	     79.98487632	     -1.04794358	      1.50419047	     88.02219943	      1.53627719	      5.84217924	     -5.61885609	      0.00000000	      0.00000000	    -54.98359084	     -2.23525970	     -4.72865653	     89.21076735	    -10.88898401	     41.00519898	     30.18604617	     33.87113231	      0.00000000	      0.00000000	     88.47169697	     -8.43288592	     35.51191296	     38.02272001	     34.96988559	      0.00000000	      0.00000000
      0.02500000	    -11.53987848	      2.04846742	      4.88172519	      0.15976273	      1.04877570	     -0.24093142	      0.00000000	      0.50000000	      0.00000000	      0.25000000	     40.28291122	     -8.58046390	      0.50079910	     65.89903404	      1.15015512	     10.51244718	     -2.33076623	      0.00000000	      0.00000000	     80.23132360	     -1.07905624	      1.48217808	     88.00440957	      1.53596670	      5.76920124	     -5.72776732	      0.00000000	      0.00000000	    -54.59153957	     -2.29566333	     -4.73885486	     89.23849735	    -10.60505290	     41.68007813	     29.17752391	     33.62773457	      0.00000000	      0.00000000	     88.55641667	     -8.26064911	     35.97886671	     37.00172926	     34.78199313	      0.00000000	      0.00000000
      0.03000000	    -11.39167600	      1.98497981	      4.82882578	      0.15979330	      1.04912567	     -0.24073315	      0.00000000	      0.50000000	      0.00000000	      0.25000000	     40.06437626	     -8.43215807	      0.53828988	     65.78571076	      1.14817725	     10.59928367	     -2.41038363	      0.00000000	      0.00000000	     80.06877553	     -1.16782224	      1.53937609	     88.02517316	      1.53632910	      5.83534079	     -5.75962534	      0.00000000	      0.00000000	    -54.95364960	     -2.29928989	     -4.64513841	     89.14675186	    -10.91692757	     40.23482390	     30.54007841	     34.34766965	      0.00000000	      0.00000000	     88.43097519	     -8.34778087	     34.72826038	     38.29758166	     35.46228389	      0.00000000	      0.00000000
      0.03500000	    -11.55408535	      2.05600812	      4.86857072	      0.15972447	      1.04880450	     -0.24097706	      0.00000000	      0.50000000	      0.00000000	      0.25000000	     40.30899572	     -8.59079929	      0.51106207	     65.91455930	      1.15042608	     10.50502983	     -2.28560298	      0.00000000	      0.00000000	     80.23041761	     -1.06465007	      1.49112063	     87.99498541	      1.53580222	      5.82075882	     -5.72071797	      0.00000000	      0.00000000	    -54.58053813	     -2.30128306	     -4.72286391	     89.23029959	    -10.52149919	     41.25212270	     29.02328729	     34.35661451	      0.00000000	      0.00000000	     88.54948615	     -8.14597780	     35.59222518	     36.77807558	     35.48355227	      0.00000000	      0.00000000
      0.04000000	    -11.54160662	      2.06008322	      4.85231992	      0.15970150	      1.04884918	     -0.24097309	      0.00000000	      0.50000000	      0.00000000	      0.25000000	     40.30138926	     -8.57930347	      0.53082890	     65.91302096	      1.15039924	     10.45079949	     -2.30107394	      0.00000000	      0.00000000	     80.21149705	     -1.07112289	      1.49398309	     87.98906547	      1.53569890	      5.81508783	     -5.72063980	      0.00000000	      0.00000000	    -54.59343038	     -2.31478924	     -4.73461510	     89.23658487	    -10.42289508	     41.01081031	     28.87237737	     34.74953902	      0.00000000	      0.00000000	     88.55685287	     -8.11059349	     35.43728072	     36.64487819	     35.88858224	      0.00000000	      0.00000000
      0.04500000	    -11.48222406	      2.05552205	      4.91227716	      0.15971372	      1.04897389	     -0.24111554	      0.00000000	      0.50000000	      0.00000000	      0.25000000	     40.20438066	     -8.63074082	      0.45158787	     65.88740641	      1.14995218	     10.52084680	     -2.25500784	      0.00000000	      0.00000000	     80.13252200	     -0.98776876	      1.53419449	     87.97963129	      1.53553424	      5.89462763	     -5.70424017	      0.00000000	      0.00000000	    -54.67127896	     -2.24148851	     -4.73194673	     89.22645862	    -10.27434199	     40.25919719	     28.82469502	     34.83525810	      0.00000000	      0.00000000	     88.53058259	     -7.96128180	     34.97686989	     36.62900813	     36.03405973	      0.00000000	      0.00000000
      0.05000000	    -11.54863868	      2.04518832	      4.81417763	      0.15969100	      1.04882846	     -0.24092720	      0.00000000	      0.50000000	      0.00000000	      0.25000000	     40.31335232	     -8.53362801	      0.55858076	     65.90300017	      1.15022434	     10.45995490	     -2.33094174	      0.00000000	      0.00000000	     80.21237974	     -1.11040887	      1.50591958	     87.99835125	      1.53586097	      5.87661933	     -5.73529913	      0.00000000	      0.00000000	    -54.57445594	     -2.32182544	     -4.68702465	     89.23470954	    -10.29994643	     40.57023372	     28.66121887	     35.36165522	      0.00000000	      0.00000000	     88.55432945	     -8.06618598	     35.26982587	     36.43964693	     36.58568165	      0.00000000	      0.00000000
